<?xml version="1.0" encoding="UTF-8"?>
<svg xmlns="http://www.w3.org/2000/svg" version="1.1" viewBox="0 0 100 100">
  <defs>
    <style>
      .cls-1 {
        fill: #000;
        opacity: .3;
      }
      .cls-1, .cls-2 {
        stroke-width: 0px;
      }
      .cls-2 {
        fill: #fff;
      }
    </style>
  </defs>
  <circle class="cls-1" cx="50" cy="50" r="50"/>
  <polygon class="cls-2" points="48.7 18.9 48.7 45.6 51.8 45.6 51.8 18.9 60.2 27.2 62.4 25 50.3 12.9 38.2 25 40.3 27.2 48.7 18.9"/>
  <polygon class="cls-2" points="45.6 51.8 45.6 48.7 18.9 48.7 28.3 39.3 26.1 37.1 12.9 50.2 25 62.3 27.3 60.1 18.9 51.8 45.6 51.8"/>
  <polygon class="cls-2" points="75.5 38.2 73.3 40.4 81.7 48.7 54.9 48.7 54.9 51.8 81.6 51.8 73.2 60.2 75.5 62.4 87.6 50.2 75.5 38.2"/>
  <polygon class="cls-2" points="51.8 81.6 51.8 54.9 48.7 54.9 48.7 81.6 40.3 73.3 38.1 75.5 50.3 87.6 63.4 74.4 61.2 72.2 51.8 81.6"/>
  <path class="cls-2" d="M50.2,100.2C22.7,100.2.2,77.8.2,50.2S22.7.2,50.2.2s50,22.4,50,50-22.4,50-50,50ZM50.2,3.2C24.3,3.2,3.2,24.3,3.2,50.2s21.1,47.1,47.1,47.1,47.1-21.1,47.1-47.1S76.2,3.2,50.2,3.2Z"/>
</svg>